<svg width="260" height="260" viewBox="0 0 260 260" fill="none" xmlns="http://www.w3.org/2000/svg">
<path fill-rule="evenodd" clip-rule="evenodd" d="M130 0C136.154 0 141.143 4.98883 141.143 11.1429L141.143 248.857C141.143 255.011 136.154 260 130 260C123.846 260 118.857 255.011 118.857 248.857L118.857 11.1429C118.857 4.98883 123.846 0 130 0ZM70.5714 44.5714C76.7255 44.5714 81.7143 49.5603 81.7143 55.7143V204.286C81.7143 210.44 76.7255 215.429 70.5714 215.429C64.4174 215.429 59.4286 210.44 59.4286 204.286V55.7143C59.4286 49.5603 64.4174 44.5714 70.5714 44.5714ZM189.429 44.5714C195.583 44.5714 200.571 49.5603 200.571 55.7143V204.286C200.571 210.44 195.583 215.429 189.429 215.429C183.275 215.429 178.286 210.44 178.286 204.286V55.7143C178.286 49.5603 183.275 44.5714 189.429 44.5714ZM11.1429 104C17.2969 104 22.2857 108.989 22.2857 115.143L22.2857 144.857C22.2857 151.011 17.2969 156 11.1429 156C4.98883 156 3.54222e-06 151.011 3.54222e-06 144.857L0 115.143C-8.85555e-07 108.989 4.98883 104 11.1429 104ZM248.857 104C255.011 104 260 108.989 260 115.143V144.857C260 151.011 255.011 156 248.857 156C242.703 156 237.714 151.011 237.714 144.857V115.143C237.714 108.989 242.703 104 248.857 104Z" fill="#E03030"/>
</svg>
