<svg width="195" height="50" viewBox="0 0 195 50" fill="none" xmlns="http://www.w3.org/2000/svg">
<path fill-rule="evenodd" clip-rule="evenodd" d="M24.9999 6.77083C25.8629 6.77083 26.5624 7.47039 26.5624 8.33333L26.5624 41.6667C26.5624 42.5296 25.8629 43.2292 24.9999 43.2292C24.137 43.2292 23.4374 42.5296 23.4374 41.6667L23.4374 8.33333C23.4374 7.47039 24.137 6.77083 24.9999 6.77083ZM16.6666 13.0208C17.5295 13.0208 18.2291 13.7204 18.2291 14.5833V35.4167C18.2291 36.2796 17.5295 36.9792 16.6666 36.9792C15.8036 36.9792 15.1041 36.2796 15.1041 35.4167V14.5833C15.1041 13.7204 15.8036 13.0208 16.6666 13.0208ZM33.3333 13.0208C34.1962 13.0208 34.8958 13.7204 34.8958 14.5833V35.4167C34.8958 36.2796 34.1962 36.9792 33.3333 36.9792C32.4703 36.9792 31.7708 36.2796 31.7708 35.4167V14.5833C31.7708 13.7204 32.4703 13.0208 33.3333 13.0208ZM8.33325 21.3542C9.1962 21.3542 9.89575 22.0537 9.89575 22.9167L9.89575 27.0833C9.89575 27.9463 9.1962 28.6458 8.33325 28.6458C7.47031 28.6458 6.77075 27.9463 6.77075 27.0833L6.77075 22.9167C6.77075 22.0537 7.47031 21.3542 8.33325 21.3542ZM41.6666 21.3542C42.5295 21.3542 43.2291 22.0537 43.2291 22.9167V27.0833C43.2291 27.9463 42.5295 28.6458 41.6666 28.6458C40.8036 28.6458 40.1041 27.9463 40.1041 27.0833V22.9167C40.1041 22.0537 40.8036 21.3542 41.6666 21.3542Z" fill="#E03030"/>
<path d="M65.185 16.237V14.945C65.7403 14.945 66.1993 14.8827 66.562 14.758C66.936 14.6333 67.2137 14.4577 67.395 14.231C67.5877 14.0043 67.684 13.7493 67.684 13.466C67.684 13.2053 67.616 12.9787 67.48 12.786C67.344 12.5933 67.1457 12.446 66.885 12.344C66.6243 12.2307 66.3013 12.174 65.916 12.174C65.5193 12.174 65.1737 12.2363 64.879 12.361C64.5843 12.4743 64.3577 12.6387 64.199 12.854C64.0403 13.058 63.961 13.3017 63.961 13.585H61.326C61.326 12.8823 61.5017 12.2533 61.853 11.698C62.2043 11.1313 62.72 10.6893 63.4 10.372C64.0913 10.0433 64.9357 9.879 65.933 9.879C66.9303 9.879 67.769 10.0263 68.449 10.321C69.129 10.6157 69.6447 11.0123 69.996 11.511C70.3473 12.0097 70.523 12.565 70.523 13.177C70.523 13.687 70.3813 14.1347 70.098 14.52C69.826 14.9053 69.4463 15.2283 68.959 15.489C68.4717 15.7383 67.905 15.9253 67.259 16.05C66.613 16.1747 65.9217 16.237 65.185 16.237ZM66.001 22.272C65.1057 22.272 64.3293 22.1643 63.672 21.949C63.026 21.7337 62.4877 21.4333 62.057 21.048C61.6377 20.6627 61.326 20.2263 61.122 19.739C60.918 19.2517 60.816 18.7473 60.816 18.226H63.638C63.6607 18.6113 63.7683 18.9343 63.961 19.195C64.1537 19.4557 64.42 19.6483 64.76 19.773C65.1 19.8977 65.4797 19.96 65.899 19.96C66.545 19.96 67.0607 19.841 67.446 19.603C67.8313 19.365 68.024 18.991 68.024 18.481C68.024 18.141 67.922 17.8463 67.718 17.597C67.514 17.3477 67.2023 17.155 66.783 17.019C66.375 16.8717 65.8423 16.798 65.185 16.798V15.336C66.273 15.336 67.242 15.455 68.092 15.693C68.9533 15.9197 69.6277 16.288 70.115 16.798C70.6137 17.2967 70.863 17.9483 70.863 18.753C70.863 19.4443 70.6817 20.0563 70.319 20.589C69.9563 21.1103 69.4123 21.524 68.687 21.83C67.973 22.1247 67.0777 22.272 66.001 22.272ZM74.7555 16.084V14.826H76.6765C77.0051 14.826 77.2828 14.775 77.5095 14.673C77.7475 14.571 77.9288 14.4293 78.0535 14.248C78.1781 14.0553 78.2405 13.823 78.2405 13.551C78.2405 13.143 78.1045 12.837 77.8325 12.633C77.5605 12.429 77.1751 12.327 76.6765 12.327H75.4865V19.773H76.9485C77.3225 19.773 77.6568 19.7277 77.9515 19.637C78.2461 19.535 78.4785 19.3763 78.6485 19.161C78.8298 18.9343 78.9205 18.6283 78.9205 18.243C78.9205 17.9937 78.8695 17.7783 78.7675 17.597C78.6655 17.4157 78.5238 17.2683 78.3425 17.155C78.1611 17.0417 77.9515 16.9623 77.7135 16.917C77.4868 16.8603 77.2318 16.832 76.9485 16.832H74.7555V15.268H77.2715C77.8495 15.268 78.4105 15.3303 78.9545 15.455C79.4985 15.5797 79.9915 15.7837 80.4335 16.067C80.8755 16.339 81.2268 16.6903 81.4875 17.121C81.7595 17.5403 81.8955 18.0503 81.8955 18.651C81.8955 19.4443 81.7028 20.0847 81.3175 20.572C80.9435 21.0593 80.4108 21.422 79.7195 21.66C79.0281 21.8867 78.2121 22 77.2715 22H72.6135V10.1H76.9825C77.8098 10.1 78.5351 10.2133 79.1585 10.44C79.7931 10.6553 80.2918 10.9897 80.6545 11.443C81.0285 11.885 81.2155 12.446 81.2155 13.126C81.2155 13.7493 81.0285 14.282 80.6545 14.724C80.2918 15.166 79.7931 15.506 79.1585 15.744C78.5351 15.9707 77.8098 16.084 76.9825 16.084H74.7555ZM93.0545 10.1L87.4615 22H84.5205L86.1355 18.379L82.2425 10.1H85.4555L88.1415 17.189L86.9005 17.172L90.0625 10.1H93.0545ZM94.1623 10.1H97.1373V22H94.1623V10.1ZM101.183 10.1H104.549L99.7213 15.676L104.804 22H101.319L96.3043 15.761L101.183 10.1ZM107.565 16.05C107.565 16.7527 107.701 17.376 107.973 17.92C108.257 18.4527 108.648 18.872 109.146 19.178C109.656 19.484 110.251 19.637 110.931 19.637C111.6 19.637 112.184 19.484 112.682 19.178C113.192 18.872 113.583 18.4527 113.855 17.92C114.139 17.376 114.28 16.7527 114.28 16.05C114.28 15.3473 114.144 14.7297 113.872 14.197C113.6 13.653 113.215 13.228 112.716 12.922C112.218 12.616 111.623 12.463 110.931 12.463C110.251 12.463 109.656 12.616 109.146 12.922C108.648 13.228 108.257 13.653 107.973 14.197C107.701 14.7297 107.565 15.3473 107.565 16.05ZM104.522 16.05C104.522 15.132 104.681 14.2933 104.998 13.534C105.327 12.7747 105.78 12.1173 106.358 11.562C106.936 11.0067 107.616 10.5817 108.398 10.287C109.18 9.981 110.025 9.828 110.931 9.828C111.849 9.828 112.694 9.981 113.464 10.287C114.246 10.5817 114.926 11.0067 115.504 11.562C116.082 12.1173 116.53 12.7747 116.847 13.534C117.165 14.2933 117.323 15.132 117.323 16.05C117.323 16.968 117.165 17.8123 116.847 18.583C116.541 19.3537 116.099 20.0223 115.521 20.589C114.955 21.1557 114.28 21.5977 113.498 21.915C112.716 22.221 111.861 22.374 110.931 22.374C109.991 22.374 109.129 22.221 108.347 21.915C107.565 21.5977 106.885 21.1557 106.307 20.589C105.741 20.0223 105.299 19.3537 104.981 18.583C104.675 17.8123 104.522 16.968 104.522 16.05ZM123.091 16.237V14.945C123.647 14.945 124.106 14.8827 124.468 14.758C124.842 14.6333 125.12 14.4577 125.301 14.231C125.494 14.0043 125.59 13.7493 125.59 13.466C125.59 13.2053 125.522 12.9787 125.386 12.786C125.25 12.5933 125.052 12.446 124.791 12.344C124.531 12.2307 124.208 12.174 123.822 12.174C123.426 12.174 123.08 12.2363 122.785 12.361C122.491 12.4743 122.264 12.6387 122.105 12.854C121.947 13.058 121.867 13.3017 121.867 13.585H119.232C119.232 12.8823 119.408 12.2533 119.759 11.698C120.111 11.1313 120.626 10.6893 121.306 10.372C121.998 10.0433 122.842 9.879 123.839 9.879C124.837 9.879 125.675 10.0263 126.355 10.321C127.035 10.6157 127.551 11.0123 127.902 11.511C128.254 12.0097 128.429 12.565 128.429 13.177C128.429 13.687 128.288 14.1347 128.004 14.52C127.732 14.9053 127.353 15.2283 126.865 15.489C126.378 15.7383 125.811 15.9253 125.165 16.05C124.519 16.1747 123.828 16.237 123.091 16.237ZM123.907 22.272C123.012 22.272 122.236 22.1643 121.578 21.949C120.932 21.7337 120.394 21.4333 119.963 21.048C119.544 20.6627 119.232 20.2263 119.028 19.739C118.824 19.2517 118.722 18.7473 118.722 18.226H121.544C121.567 18.6113 121.675 18.9343 121.867 19.195C122.06 19.4557 122.326 19.6483 122.666 19.773C123.006 19.8977 123.386 19.96 123.805 19.96C124.451 19.96 124.967 19.841 125.352 19.603C125.738 19.365 125.93 18.991 125.93 18.481C125.93 18.141 125.828 17.8463 125.624 17.597C125.42 17.3477 125.109 17.155 124.689 17.019C124.281 16.8717 123.749 16.798 123.091 16.798V15.336C124.179 15.336 125.148 15.455 125.998 15.693C126.86 15.9197 127.534 16.288 128.021 16.798C128.52 17.2967 128.769 17.9483 128.769 18.753C128.769 19.4443 128.588 20.0563 128.225 20.589C127.863 21.1103 127.319 21.524 126.593 21.83C125.879 22.1247 124.984 22.272 123.907 22.272ZM132.141 19.705L132.345 17.512H138.244L138.431 19.705H132.141ZM135.252 14.469L133.586 18.311L133.722 18.94L132.243 22H128.996L135.252 9.352L141.525 22H138.261L136.833 19.059L136.935 18.328L135.252 14.469ZM150.337 12.667H145.798V22H142.874V10.1H153.261V22H150.337V12.667ZM166.784 13.092L155.887 22.595L155.972 19.008L166.869 9.505L166.784 13.092ZM158.641 10.1V19.773L155.887 22.595V10.1H158.641ZM166.869 9.505V22H164.098V12.429L166.869 9.505ZM171.832 16.05C171.832 16.7753 171.996 17.4043 172.325 17.937C172.654 18.4583 173.084 18.855 173.617 19.127C174.161 19.399 174.756 19.535 175.402 19.535C175.969 19.535 176.467 19.4613 176.898 19.314C177.329 19.1667 177.714 18.974 178.054 18.736C178.394 18.498 178.694 18.243 178.955 17.971V21.065C178.479 21.439 177.958 21.7337 177.391 21.949C176.824 22.1643 176.105 22.272 175.232 22.272C174.28 22.272 173.402 22.1247 172.597 21.83C171.792 21.5353 171.101 21.1103 170.523 20.555C169.945 19.9997 169.497 19.3423 169.18 18.583C168.863 17.8237 168.704 16.9793 168.704 16.05C168.704 15.1207 168.863 14.2763 169.18 13.517C169.497 12.7577 169.945 12.1003 170.523 11.545C171.101 10.9897 171.792 10.5647 172.597 10.27C173.402 9.97533 174.28 9.828 175.232 9.828C176.105 9.828 176.824 9.93567 177.391 10.151C177.958 10.3663 178.479 10.661 178.955 11.035V14.129C178.694 13.857 178.394 13.602 178.054 13.364C177.714 13.1147 177.329 12.922 176.898 12.786C176.467 12.6387 175.969 12.565 175.402 12.565C174.756 12.565 174.161 12.701 173.617 12.973C173.084 13.245 172.654 13.6417 172.325 14.163C171.996 14.6843 171.832 15.3133 171.832 16.05ZM181.304 10.1H184.177V22H181.304V10.1ZM183.106 16.594V14.231H185.435C186.444 14.231 187.288 14.3897 187.968 14.707C188.659 15.013 189.181 15.455 189.532 16.033C189.883 16.611 190.059 17.3023 190.059 18.107C190.059 18.9117 189.883 19.6087 189.532 20.198C189.181 20.776 188.659 21.2237 187.968 21.541C187.288 21.847 186.444 22 185.435 22H183.106V19.637H185.435C185.82 19.637 186.149 19.5803 186.421 19.467C186.704 19.3537 186.92 19.1837 187.067 18.957C187.214 18.719 187.288 18.4357 187.288 18.107C187.288 17.7783 187.214 17.5007 187.067 17.274C186.92 17.0473 186.704 16.8773 186.421 16.764C186.149 16.6507 185.82 16.594 185.435 16.594H183.106Z" fill="white"/>
<path d="M60.98 42V31.92H61.925L65.887 40.397L69.828 31.92H70.787V41.993H69.807V34.216L66.216 42H65.551L61.967 34.216V42H60.98ZM82.9085 42.21C82.1572 42.21 81.5155 42.0397 80.9835 41.699C80.4515 41.3583 80.0432 40.887 79.7585 40.285C79.4738 39.683 79.3315 38.9923 79.3315 38.213C79.3315 37.4197 79.4762 36.7243 79.7655 36.127C80.0548 35.5297 80.4655 35.0653 80.9975 34.734C81.5342 34.398 82.1712 34.23 82.9085 34.23C83.6645 34.23 84.3085 34.4003 84.8405 34.741C85.3772 35.077 85.7855 35.546 86.0655 36.148C86.3502 36.7453 86.4925 37.4337 86.4925 38.213C86.4925 39.0063 86.3502 39.704 86.0655 40.306C85.7808 40.9033 85.3702 41.37 84.8335 41.706C84.2968 42.042 83.6552 42.21 82.9085 42.21ZM82.9085 41.223C83.7485 41.223 84.3738 40.9453 84.7845 40.39C85.1952 39.83 85.4005 39.1043 85.4005 38.213C85.4005 37.2983 85.1928 36.5703 84.7775 36.029C84.3668 35.4877 83.7438 35.217 82.9085 35.217C82.3438 35.217 81.8772 35.3453 81.5085 35.602C81.1445 35.854 80.8715 36.2063 80.6895 36.659C80.5122 37.107 80.4235 37.625 80.4235 38.213C80.4235 39.123 80.6335 39.8533 81.0535 40.404C81.4735 40.95 82.0918 41.223 82.9085 41.223ZM98.1726 42.21C97.412 42.21 96.768 42.0397 96.2406 41.699C95.7133 41.3583 95.312 40.8893 95.0366 40.292C94.766 39.69 94.626 38.9993 94.6166 38.22C94.626 37.4267 94.7706 36.7313 95.0506 36.134C95.3306 35.532 95.7343 35.0653 96.2616 34.734C96.789 34.398 97.4283 34.23 98.1796 34.23C98.945 34.23 99.61 34.4167 100.175 34.79C100.744 35.1633 101.134 35.6743 101.344 36.323L100.336 36.645C100.158 36.1923 99.876 35.8423 99.4886 35.595C99.106 35.343 98.6673 35.217 98.1726 35.217C97.6173 35.217 97.1576 35.3453 96.7936 35.602C96.4296 35.854 96.159 36.2063 95.9816 36.659C95.8043 37.1117 95.7133 37.632 95.7086 38.22C95.718 39.1253 95.928 39.8533 96.3386 40.404C96.7493 40.95 97.3606 41.223 98.1726 41.223C98.686 41.223 99.1223 41.1063 99.4816 40.873C99.8456 40.635 100.121 40.2897 100.308 39.837L101.344 40.145C101.064 40.817 100.653 41.3303 100.112 41.685C99.5703 42.035 98.924 42.21 98.1726 42.21ZM109.782 42L109.789 34.44H110.825V38.08L114.199 34.44H115.571L112.029 38.22L116.033 42H114.535L110.825 38.36V42H109.782ZM123.727 42V34.44H126.842C127.001 34.44 127.192 34.4493 127.416 34.468C127.645 34.4867 127.857 34.5217 128.053 34.573C128.478 34.685 128.818 34.9137 129.075 35.259C129.336 35.6043 129.467 36.0197 129.467 36.505C129.467 36.7757 129.425 37.0183 129.341 37.233C129.262 37.443 129.147 37.625 128.998 37.779C128.928 37.8583 128.851 37.9283 128.767 37.989C128.683 38.045 128.601 38.0917 128.522 38.129C128.671 38.157 128.832 38.2223 129.005 38.325C129.276 38.4837 129.481 38.6983 129.621 38.969C129.761 39.235 129.831 39.5593 129.831 39.942C129.831 40.46 129.707 40.8823 129.46 41.209C129.213 41.5357 128.881 41.7597 128.466 41.881C128.279 41.9323 128.076 41.965 127.857 41.979C127.642 41.993 127.439 42 127.248 42H123.727ZM124.763 41.125H127.199C127.297 41.125 127.421 41.118 127.57 41.104C127.719 41.0853 127.852 41.062 127.969 41.034C128.244 40.964 128.445 40.824 128.571 40.614C128.702 40.3993 128.767 40.166 128.767 39.914C128.767 39.5827 128.669 39.312 128.473 39.102C128.282 38.8873 128.025 38.7567 127.703 38.71C127.596 38.6867 127.484 38.6727 127.367 38.668C127.25 38.6633 127.145 38.661 127.052 38.661H124.763V41.125ZM124.763 37.779H126.877C126.998 37.779 127.134 37.772 127.283 37.758C127.437 37.7393 127.57 37.709 127.682 37.667C127.925 37.583 128.102 37.4383 128.214 37.233C128.331 37.0277 128.389 36.8037 128.389 36.561C128.389 36.295 128.326 36.0617 128.2 35.861C128.079 35.6603 127.894 35.5203 127.647 35.441C127.479 35.3803 127.297 35.3453 127.101 35.336C126.91 35.3267 126.788 35.322 126.737 35.322H124.763V37.779ZM140.389 42.21C139.82 42.21 139.341 42.1073 138.954 41.902C138.571 41.6967 138.284 41.4237 138.093 41.083C137.902 40.7423 137.806 40.3713 137.806 39.97C137.806 39.5593 137.888 39.2093 138.051 38.92C138.219 38.626 138.445 38.3857 138.73 38.199C139.019 38.0123 139.353 37.87 139.731 37.772C140.114 37.6787 140.536 37.597 140.998 37.527C141.465 37.4523 141.92 37.3893 142.363 37.338C142.811 37.282 143.203 37.2283 143.539 37.177L143.175 37.401C143.189 36.6543 143.044 36.1013 142.741 35.742C142.438 35.3827 141.91 35.203 141.159 35.203C140.641 35.203 140.202 35.3197 139.843 35.553C139.488 35.7863 139.239 36.155 139.094 36.659L138.093 36.365C138.266 35.6883 138.613 35.1633 139.136 34.79C139.659 34.4167 140.338 34.23 141.173 34.23C141.864 34.23 142.449 34.3607 142.93 34.622C143.415 34.8787 143.758 35.252 143.959 35.742C144.052 35.9613 144.113 36.2063 144.141 36.477C144.169 36.7477 144.183 37.023 144.183 37.303V42H143.266V40.103L143.532 40.215C143.275 40.8637 142.876 41.3583 142.335 41.699C141.794 42.0397 141.145 42.21 140.389 42.21ZM140.508 41.321C140.989 41.321 141.409 41.2347 141.768 41.062C142.127 40.8893 142.417 40.6537 142.636 40.355C142.855 40.0517 142.998 39.711 143.063 39.333C143.119 39.0903 143.149 38.8243 143.154 38.535C143.159 38.241 143.161 38.0217 143.161 37.877L143.553 38.08C143.203 38.1267 142.823 38.1733 142.412 38.22C142.006 38.2667 141.605 38.3203 141.208 38.381C140.816 38.4417 140.461 38.514 140.144 38.598C139.929 38.6587 139.722 38.745 139.521 38.857C139.32 38.9643 139.155 39.109 139.024 39.291C138.898 39.473 138.835 39.6993 138.835 39.97C138.835 40.1893 138.889 40.4017 138.996 40.607C139.108 40.8123 139.285 40.9827 139.528 41.118C139.775 41.2533 140.102 41.321 140.508 41.321Z" fill="#828282"/>
</svg>
